<?xml version="1.0" standalone="no"?>
<!DOCTYPE svg PUBLIC "-//W3C//DTD SVG 20010904//EN"
 "http://www.w3.org/TR/2001/REC-SVG-20010904/DTD/svg10.dtd">
<svg version="1.0" xmlns="http://www.w3.org/2000/svg"
 width="128.000000pt" height="71.000000pt" viewBox="0 0 128.000000 71.000000"
 preserveAspectRatio="xMidYMid meet">

<g transform="translate(0.000000,71.000000) scale(0.100000,-0.100000)"
fill="#000000" stroke="none">
<path d="M0 528 l0 -182 35 58 c19 32 35 61 35 63 0 17 86 122 108 132 44 21
114 24 151 8 33 -14 36 -13 80 14 51 33 77 36 108 14 20 -14 27 -12 90 21 37
19 72 39 77 45 6 5 -119 9 -337 9 l-347 0 0 -182z"/>
<path d="M838 684 c31 -19 50 -24 72 -19 42 9 90 -17 140 -76 34 -41 45 -48
66 -43 42 11 134 -39 134 -72 0 -6 7 -17 15 -24 13 -11 15 4 15 124 l0 136
-242 0 -243 0 43 -26z"/>
<path d="M1241 320 c-39 -72 -72 -100 -120 -100 -30 0 -39 -5 -53 -31 -12 -19
-35 -37 -68 -51 -35 -15 -52 -28 -56 -45 -15 -58 -119 -85 -184 -47 -26 16
-29 16 -59 -5 -18 -13 -44 -27 -59 -31 -15 -5 117 -9 306 -9 l332 -1 0 190 c0
105 -2 190 -4 190 -2 0 -17 -27 -35 -60z"/>
<path d="M1 163 l-1 -163 286 0 287 0 -46 35 c-44 34 -48 35 -89 24 -43 -12
-75 -4 -128 30 -8 5 -28 12 -43 16 -16 3 -49 27 -75 52 -36 37 -53 47 -74 44
-32 -3 -95 54 -108 97 -5 17 -9 -36 -9 -135z"/>
</g>
</svg>
