<?xml version="1.0" standalone="no"?>
<!DOCTYPE svg PUBLIC "-//W3C//DTD SVG 20010904//EN"
 "http://www.w3.org/TR/2001/REC-SVG-20010904/DTD/svg10.dtd">
<svg version="1.0" xmlns="http://www.w3.org/2000/svg"
 width="121.000000pt" height="57.000000pt" viewBox="0 0 121.000000 57.000000"
 preserveAspectRatio="xMidYMid meet">

<g transform="translate(0.000000,57.000000) scale(0.100000,-0.100000)"
fill="#000000" stroke="none">
<path d="M1 463 l0 -108 19 43 c20 43 63 72 108 72 10 0 39 20 64 45 52 51 84
57 132 26 26 -17 32 -18 50 -5 26 18 73 18 106 0 21 -12 29 -12 55 1 16 9 41
19 55 24 14 4 -113 8 -282 8 l-308 1 1 -107z"/>
<path d="M644 560 c16 -5 41 -21 57 -36 l27 -26 38 26 c61 41 134 35 190 -16
11 -10 56 -32 100 -49 85 -33 107 -48 135 -94 l19 -30 0 118 0 117 -297 -1
c-185 0 -287 -4 -269 -9z"/>
<path d="M0 163 l0 -163 308 1 c288 0 305 1 267 16 -22 8 -50 15 -63 14 -13 0
-36 6 -53 14 -16 9 -39 13 -53 9 -29 -7 -77 16 -129 62 -22 20 -48 34 -63 34
-17 0 -39 13 -62 37 -21 21 -54 45 -74 55 -21 9 -47 32 -58 50 l-20 33 0 -162z"/>
<path d="M1185 277 c-11 -11 -24 -29 -30 -38 -16 -28 -128 -99 -156 -99 -14 0
-34 -9 -44 -20 -12 -13 -31 -20 -53 -20 -20 0 -55 -11 -80 -26 -31 -19 -52
-24 -73 -20 -15 3 -31 1 -35 -5 -3 -6 -20 -19 -38 -30 l-31 -19 283 0 282 0 0
150 c0 83 -1 150 -2 149 -2 0 -12 -10 -23 -22z"/>
</g>
</svg>
