<?xml version="1.0" standalone="no"?>
<!DOCTYPE svg PUBLIC "-//W3C//DTD SVG 20010904//EN"
 "http://www.w3.org/TR/2001/REC-SVG-20010904/DTD/svg10.dtd">
<svg version="1.0" xmlns="http://www.w3.org/2000/svg"
 width="84.000000pt" height="45.000000pt" viewBox="0 0 84.000000 45.000000"
 preserveAspectRatio="xMidYMid meet">

<g transform="translate(0.000000,45.000000) scale(0.100000,-0.100000)"
fill="#000000" stroke="none">
<path d="M1 298 c0 -84 3 -146 6 -138 3 8 10 21 16 28 6 7 12 25 13 38 2 14 8
32 15 40 14 17 97 74 108 74 4 0 22 11 41 25 19 14 41 25 50 25 9 0 33 9 55
20 22 11 48 20 60 20 11 0 27 5 35 10 10 6 -55 10 -192 10 l-208 0 1 -152z"/>
<path d="M542 439 c10 -5 40 -13 67 -16 37 -4 57 -13 77 -34 15 -16 37 -29 48
-29 11 0 40 -19 63 -42 l43 -42 0 87 0 87 -157 0 c-112 -1 -153 -4 -141 -11z"/>
<path d="M813 201 c-13 -11 -23 -23 -23 -29 0 -14 -35 -42 -52 -42 -9 0 -28
-17 -44 -37 -39 -53 -54 -62 -95 -63 -20 0 -42 -7 -49 -15 -11 -13 5 -15 139
-15 l151 0 0 110 c0 61 -1 110 -2 110 -2 -1 -13 -9 -25 -19z"/>
<path d="M1 73 l-1 -73 148 1 c81 1 136 3 122 6 -59 9 -132 37 -143 54 -7 11
-23 19 -40 19 -37 0 -66 16 -77 43 -6 16 -9 2 -9 -50z"/>
<path d="M346 15 c-18 -14 -13 -15 55 -15 l74 1 -40 14 c-50 18 -65 18 -89 0z"/>
</g>
</svg>
