<?xml version="1.0" standalone="no"?>
<!DOCTYPE svg PUBLIC "-//W3C//DTD SVG 20010904//EN"
 "http://www.w3.org/TR/2001/REC-SVG-20010904/DTD/svg10.dtd">
<svg version="1.0" xmlns="http://www.w3.org/2000/svg"
 width="117.000000pt" height="71.000000pt" viewBox="0 0 117.000000 71.000000"
 preserveAspectRatio="xMidYMid meet">

<g transform="translate(0.000000,71.000000) scale(0.100000,-0.100000)"
fill="#000000" stroke="none">
<path d="M0 528 l0 -181 30 41 c16 22 35 44 42 49 8 4 21 20 30 35 10 14 26
29 37 33 11 3 22 19 26 36 7 32 51 70 100 86 17 6 48 27 69 47 l40 36 -187 0
-187 0 0 -182z"/>
<path d="M499 689 c41 -11 87 -31 102 -44 18 -14 36 -21 48 -18 12 3 36 -5 57
-18 32 -19 41 -21 68 -11 40 15 73 15 81 2 3 -5 21 -10 39 -10 24 0 41 -9 68
-37 20 -21 41 -48 47 -60 6 -13 26 -30 44 -39 36 -19 50 -36 90 -107 l27 -50
0 207 0 206 -372 -1 -373 -1 74 -19z"/>
<path d="M0 143 l0 -143 213 1 212 0 -43 20 c-24 10 -58 29 -75 41 -18 13 -39
22 -47 20 -9 -1 -30 8 -47 20 -17 13 -52 39 -79 58 -26 19 -67 55 -91 80 l-43
45 0 -142z"/>
<path d="M1145 223 c-43 -66 -138 -143 -177 -143 -13 0 -32 -7 -42 -15 -11 -8
-32 -15 -46 -15 -14 0 -41 -11 -60 -25 l-34 -25 192 0 192 0 0 125 c0 69 -2
125 -4 125 -2 0 -12 -12 -21 -27z"/>
<path d="M530 20 l-45 -19 130 0 c98 -1 126 2 117 11 -6 6 -31 13 -54 14 -24
1 -56 5 -73 8 -18 3 -48 -3 -75 -14z"/>
</g>
</svg>
