<?xml version="1.0" standalone="no"?>
<!DOCTYPE svg PUBLIC "-//W3C//DTD SVG 20010904//EN"
 "http://www.w3.org/TR/2001/REC-SVG-20010904/DTD/svg10.dtd">
<svg version="1.0" xmlns="http://www.w3.org/2000/svg"
 width="78.000000pt" height="37.000000pt" viewBox="0 0 78.000000 37.000000"
 preserveAspectRatio="xMidYMid meet">

<g transform="translate(0.000000,37.000000) scale(0.100000,-0.100000)"
fill="#000000" stroke="none">
<path d="M1 293 c0 -52 3 -71 9 -58 4 11 6 39 3 62 -4 27 -1 48 7 58 10 12 10
15 -4 15 -13 0 -16 -12 -15 -77z"/>
<path d="M65 360 c4 -6 11 -8 16 -5 14 9 11 15 -7 15 -8 0 -12 -5 -9 -10z"/>
<path d="M176 360 c25 -10 64 -57 64 -77 0 -8 -7 -29 -16 -46 -9 -18 -20 -39
-24 -47 -4 -8 -20 -19 -37 -23 -21 -6 -35 -21 -49 -50 -16 -35 -24 -43 -51
-45 -38 -4 -58 24 -50 72 3 17 2 40 -3 51 -6 13 -9 -18 -9 -87 l-1 -108 307 0
c296 0 306 1 290 18 -10 10 -17 28 -17 40 0 21 24 52 41 52 6 0 6 7 -1 19 -5
11 -10 31 -10 45 0 14 -4 26 -10 26 -5 0 -14 10 -21 21 -17 33 3 69 38 69 38
0 52 -11 63 -46 l8 -29 1 28 c1 35 42 57 72 39 18 -11 19 -9 19 38 l0 50 -312
-1 c-184 0 -304 -4 -292 -9z m153 -69 c-1 -36 5 -72 15 -92 20 -41 20 -78 0
-107 -22 -32 -70 -26 -97 10 -18 24 -19 31 -7 55 16 35 19 45 24 111 5 59 19
82 47 82 16 0 18 -8 18 -59z m171 -11 c9 -5 19 -5 28 2 9 8 16 8 24 0 14 -14
21 -98 9 -120 -6 -10 -6 -23 0 -34 18 -34 1 -46 -68 -47 -36 0 -74 4 -84 9
-24 13 -43 73 -31 97 5 10 14 31 18 48 13 43 69 68 104 45z"/>
<path d="M100 261 c0 -5 5 -13 10 -16 6 -3 10 -2 10 4 0 5 -4 13 -10 16 -5 3
-10 2 -10 -4z"/>
<path d="M762 208 c-31 -77 -42 -98 -52 -98 -6 0 -8 -5 -5 -10 10 -15 -14 -78
-33 -90 -12 -7 0 -9 46 -10 l62 0 0 120 c0 66 -1 120 -3 120 -1 0 -8 -15 -15
-32z"/>
</g>
</svg>
