<?xml version="1.0" standalone="no"?>
<!DOCTYPE svg PUBLIC "-//W3C//DTD SVG 20010904//EN"
 "http://www.w3.org/TR/2001/REC-SVG-20010904/DTD/svg10.dtd">
<svg version="1.0" xmlns="http://www.w3.org/2000/svg"
 width="94.000000pt" height="65.000000pt" viewBox="0 0 94.000000 65.000000"
 preserveAspectRatio="xMidYMid meet">

<g transform="translate(0.000000,65.000000) scale(0.100000,-0.100000)"
fill="#000000" stroke="none">
<path d="M0 523 l0 -127 20 22 c11 12 34 29 50 37 17 9 30 20 30 25 0 6 21 20
48 33 26 12 49 24 52 28 3 3 22 13 44 23 29 14 44 16 61 8 19 -9 26 -7 41 9
13 15 30 19 75 19 32 0 60 -4 64 -9 3 -6 20 -1 40 10 28 17 38 18 57 8 12 -7
37 -12 55 -11 18 1 33 -3 33 -7 0 -5 9 -7 20 -4 11 3 20 9 20 14 0 5 9 18 20
29 l20 20 -375 0 -375 0 0 -127z"/>
<path d="M791 636 c21 -6 45 -18 55 -27 11 -8 32 -23 47 -33 24 -15 27 -22 22
-47 -4 -16 -2 -35 3 -42 6 -7 12 -25 15 -42 2 -16 5 23 6 88 l1 117 -92 -1
c-85 -1 -90 -2 -57 -13z"/>
<path d="M840 445 c0 -8 7 -15 15 -15 8 0 15 7 15 15 0 8 -7 15 -15 15 -8 0
-15 -7 -15 -15z"/>
<path d="M924 376 c-4 -11 -13 -12 -37 -5 -44 13 -51 11 -37 -6 7 -8 21 -15
32 -15 33 0 9 -19 -38 -31 -24 -6 -44 -15 -44 -20 0 -5 -7 -9 -15 -9 -8 0 -21
-13 -30 -30 -18 -35 -36 -45 -92 -55 -24 -4 -45 -11 -49 -16 -3 -5 -17 -9 -32
-9 -15 0 -38 -7 -50 -16 -15 -10 -38 -15 -65 -12 -23 1 -56 -3 -73 -10 -29
-12 -34 -11 -69 12 -43 30 -47 30 -92 14 -44 -16 -100 9 -114 51 -7 21 -19 32
-39 36 -16 4 -41 20 -55 37 l-25 30 0 -161 0 -161 470 0 470 0 0 195 c0 183
-3 215 -16 181z"/>
</g>
</svg>
