<?xml version="1.0" standalone="no"?>
<!DOCTYPE svg PUBLIC "-//W3C//DTD SVG 20010904//EN"
 "http://www.w3.org/TR/2001/REC-SVG-20010904/DTD/svg10.dtd">
<svg version="1.0" xmlns="http://www.w3.org/2000/svg"
 width="94.000000pt" height="68.000000pt" viewBox="0 0 94.000000 68.000000"
 preserveAspectRatio="xMidYMid meet">

<g transform="translate(0.000000,68.000000) scale(0.100000,-0.100000)"
fill="#000000" stroke="none">
<path d="M1 558 c1 -76 4 -110 8 -88 4 20 11 42 16 50 5 8 8 27 6 42 -3 32 34
72 76 83 14 3 32 13 40 20 13 13 4 15 -66 15 l-81 0 1 -122z"/>
<path d="M185 673 c11 -3 40 -11 63 -19 24 -8 69 -16 100 -19 32 -3 77 -12
101 -20 29 -11 47 -12 55 -6 18 15 85 1 96 -19 7 -13 20 -16 55 -14 40 2 53
-2 92 -32 24 -19 49 -34 55 -34 5 0 22 -12 37 -27 16 -16 44 -43 65 -61 l36
-33 0 146 0 145 -387 -1 c-214 -1 -379 -3 -368 -6z"/>
<path d="M70 475 c0 -8 7 -15 15 -15 8 0 15 7 15 15 0 8 -7 15 -15 15 -8 0
-15 -7 -15 -15z"/>
<path d="M0 218 l0 -218 470 0 470 0 0 156 0 157 -30 -32 c-18 -18 -40 -31
-55 -31 -23 0 -51 -31 -39 -43 8 -7 -44 -40 -70 -45 -12 -2 -37 2 -58 9 -29 9
-42 9 -67 -2 -17 -8 -31 -17 -31 -21 0 -13 -44 -8 -62 6 -12 8 -35 11 -65 9
-40 -4 -51 -1 -67 16 -11 12 -27 21 -36 21 -10 0 -35 8 -56 17 -22 9 -43 16
-47 15 -18 -5 -77 41 -83 64 -3 13 -11 24 -16 24 -5 0 -16 7 -24 15 -9 8 -26
15 -38 15 -13 0 -31 9 -40 19 -17 19 -17 20 10 23 15 2 29 9 32 16 3 11 0 12
-15 4 -25 -14 -55 -10 -70 8 -10 12 -12 -30 -13 -202z"/>
</g>
</svg>
