<?xml version="1.0" standalone="no"?>
<!DOCTYPE svg PUBLIC "-//W3C//DTD SVG 20010904//EN"
 "http://www.w3.org/TR/2001/REC-SVG-20010904/DTD/svg10.dtd">
<svg version="1.0" xmlns="http://www.w3.org/2000/svg"
 width="365.000000pt" height="49.000000pt" viewBox="0 0 365.000000 49.000000"
 preserveAspectRatio="xMidYMid meet">

<g transform="translate(0.000000,49.000000) scale(0.100000,-0.100000)"
fill="#000000" stroke="none">
<path d="M0 463 c0 -14 1 -24 3 -22 1 2 11 14 21 27 19 22 19 22 -2 22 -17 0
-22 -6 -22 -27z"/>
<path d="M103 479 c44 -26 61 -110 28 -150 -18 -22 -18 -24 0 -53 14 -23 26
-31 53 -33 44 -2 92 -27 107 -54 13 -24 5 -61 -17 -83 -16 -16 -94 -23 -107
-9 -4 4 -31 6 -61 4 -49 -2 -55 0 -80 29 l-26 32 0 -81 0 -81 1705 0 1706 0
-21 28 c-29 39 -36 116 -15 172 9 25 16 56 15 70 -5 54 -1 73 17 92 21 21 78
27 94 11 7 -7 19 -7 39 0 38 15 72 -1 93 -44 l17 -34 0 98 0 97 -477 0 c-405
-1 -473 -3 -448 -14 78 -34 110 -103 76 -162 -12 -19 -21 -41 -21 -48 0 -21
-35 -46 -73 -53 -29 -4 -37 -11 -42 -32 -3 -15 -14 -41 -25 -59 -16 -26 -26
-32 -54 -32 -19 0 -42 7 -50 16 -18 17 -22 89 -6 99 7 4 5 14 -5 28 -18 26
-20 78 -3 95 9 9 9 18 0 37 -15 33 -15 57 0 91 11 23 17 25 48 22 19 -3 46 -1
60 3 14 4 -180 7 -430 8 -425 1 -453 0 -438 -16 14 -14 22 -15 43 -5 90 41
167 -41 121 -130 -13 -24 -12 -28 9 -48 13 -13 27 -37 31 -54 6 -28 7 -29 15
-10 4 12 12 25 17 28 5 3 7 17 4 31 -5 28 12 55 35 55 8 0 23 10 32 22 28 34
111 22 111 -17 0 -6 11 -17 25 -23 17 -8 25 -20 25 -36 0 -14 4 -27 9 -31 20
-12 22 -64 5 -100 -21 -44 -59 -65 -119 -65 -63 0 -118 30 -140 76 l-17 36
-18 -40 c-23 -50 -46 -63 -113 -62 -28 0 -73 -2 -99 -6 -42 -5 -50 -3 -73 20
-25 25 -26 32 -21 84 3 31 5 68 5 82 -1 14 0 31 0 38 2 20 2 50 1 87 -2 38 12
62 45 75 11 5 -347 9 -795 9 -558 0 -809 -3 -797 -10z m315 -31 c15 -15 16
-50 1 -65 -8 -8 -6 -16 10 -29 14 -12 21 -30 21 -54 0 -19 7 -44 15 -54 22
-29 18 -78 -8 -117 -19 -28 -30 -35 -64 -37 -34 -3 -44 1 -61 23 -31 39 -38
100 -16 133 10 15 17 34 16 44 -2 9 5 22 16 30 32 23 36 38 13 54 -25 18 -27
46 -5 68 18 19 45 21 62 4z m642 -3 c9 -11 10 -25 2 -55 -6 -23 -6 -42 -1 -46
5 -3 9 -20 9 -37 0 -18 7 -45 16 -62 38 -72 7 -148 -63 -153 -34 -3 -44 1 -62
24 -23 29 -28 83 -9 102 11 11 14 21 22 82 2 14 4 27 6 30 1 3 1 24 0 47 -2
63 48 106 80 68z m-458 -12 c10 -9 18 -24 18 -33 0 -11 11 -20 30 -24 41 -8
57 -44 40 -86 -7 -16 -17 -30 -23 -30 -6 0 -1 -10 11 -23 49 -52 6 -147 -67
-147 -20 0 -46 7 -58 15 -29 20 -48 90 -34 121 6 15 7 25 1 29 -6 4 -10 13
-10 21 0 9 -7 22 -15 30 -20 21 -19 40 5 64 11 11 20 24 20 28 0 13 39 52 52
52 6 0 20 -7 30 -17z m230 0 c10 -9 18 -24 18 -33 0 -11 11 -20 30 -24 41 -8
57 -44 40 -86 -7 -16 -17 -30 -23 -30 -6 0 -1 -10 11 -23 49 -52 6 -147 -67
-147 -20 0 -46 7 -58 15 -29 20 -48 90 -34 121 6 15 7 25 1 29 -6 4 -10 13
-10 21 0 9 -7 22 -15 30 -20 21 -19 40 5 64 11 11 20 24 20 28 0 13 39 52 52
52 6 0 20 -7 30 -17z m516 -100 c32 -33 42 -51 42 -77 0 -18 -3 -36 -7 -40 -4
-4 -6 -22 -5 -40 5 -49 -42 -86 -109 -86 -55 0 -103 20 -118 49 -6 10 -13 48
-17 85 -6 62 -5 68 14 73 11 2 23 15 26 28 9 37 67 66 111 57 11 -3 39 -25 63
-49z m1690 0 c32 -33 42 -51 42 -77 0 -18 -3 -36 -7 -40 -4 -4 -6 -22 -5 -40
5 -49 -42 -86 -109 -86 -55 0 -103 20 -118 49 -6 10 -13 48 -17 85 -6 62 -5
68 14 73 11 2 23 15 26 28 9 37 67 66 111 57 11 -3 39 -25 63 -49z m280 0 c32
-33 42 -51 42 -77 0 -18 -3 -36 -7 -40 -4 -4 -6 -22 -5 -40 5 -49 -42 -86
-109 -86 -55 0 -103 20 -118 49 -6 10 -13 48 -17 85 -6 62 -5 68 14 73 11 2
23 15 26 28 9 37 67 66 111 57 11 -3 39 -25 63 -49z"/>
<path d="M1230 201 c0 -5 9 -7 20 -4 11 3 20 7 20 9 0 2 -9 4 -20 4 -11 0 -20
-4 -20 -9z"/>
<path d="M2920 201 c0 -5 9 -7 20 -4 11 3 20 7 20 9 0 2 -9 4 -20 4 -11 0 -20
-4 -20 -9z"/>
<path d="M3200 201 c0 -5 9 -7 20 -4 11 3 20 7 20 9 0 2 -9 4 -20 4 -11 0 -20
-4 -20 -9z"/>
<path d="M1766 345 c4 -8 10 -15 15 -15 4 0 6 7 3 15 -4 8 -10 15 -15 15 -4 0
-6 -7 -3 -15z"/>
<path d="M2630 349 c0 -23 15 -38 28 -30 9 6 7 12 -8 26 -15 14 -20 15 -20 4z"/>
<path d="M1 305 c0 -35 2 -37 11 -19 7 15 7 28 -1 40 -9 16 -10 12 -10 -21z"/>
<path d="M2090 269 c0 -5 9 -9 20 -9 11 0 20 2 20 4 0 2 -9 6 -20 9 -11 3 -20
1 -20 -4z"/>
<path d="M3505 250 c3 -5 8 -10 11 -10 2 0 4 5 4 10 0 6 -5 10 -11 10 -5 0 -7
-4 -4 -10z"/>
<path d="M1765 230 c4 -6 11 -8 16 -5 14 9 11 15 -7 15 -8 0 -12 -5 -9 -10z"/>
<path d="M3630 170 c-15 -35 -55 -70 -80 -70 -12 0 -20 -11 -24 -32 -3 -17
-14 -40 -23 -50 -15 -17 -13 -18 65 -18 l82 0 0 100 c0 55 -2 100 -4 100 -2 0
-9 -14 -16 -30z"/>
</g>
</svg>
